<?xml version="1.0" encoding="UTF-8" standalone="no"?>
<svg width="100px" height="79px" viewBox="0 0 100 79" version="1.1" xmlns="http://www.w3.org/2000/svg" xmlns:xlink="http://www.w3.org/1999/xlink" xmlns:sketch="http://www.bohemiancoding.com/sketch/ns">
    <!-- Generator: Sketch 3.2.2 (9983) - http://www.bohemiancoding.com/sketch -->
    <title>Path 9</title>
    <desc>Created with Sketch.</desc>
    <defs></defs>
    <g id="Icons" stroke="none" stroke-width="1" fill="none" fill-rule="evenodd" sketch:type="MSPage">
        <g id="Artboard-1" sketch:type="MSArtboardGroup" transform="translate(-342.000000, -92.000000)" fill="#292929">
            <path d="M342.440998,104.853185 L347.439332,104.853185 C349.097106,104.853185 350.443453,106.199085 350.446464,107.849283 L350.535877,156.857088 C350.538896,158.511786 349.203736,159.853185 347.548088,159.853185 L342.440998,159.853185 L342.440998,170.867188 L372.440998,170.853185 L372.440998,159.853185 L365.440998,159.853185 L365.440998,109.853185 L381.440998,170.853185 L395.440998,170.853185 L413.440998,109.853185 L413.440998,159.853185 L406.440998,159.853185 L406.513584,170.853185 L441.440998,170.853185 L441.440998,159.853185 L437.450252,159.853185 C435.788287,159.853185 434.440998,158.507285 434.440998,156.857088 L434.440998,107.849283 C434.440998,106.194584 435.790668,104.853185 437.450252,104.853185 L441.440998,104.853185 L441.440998,92.8531851 L403.440998,92.8531851 L391.440998,138.853185 L379.440998,92.8531851 L342.487896,92.8531851 L342.440998,104.853185 Z" id="Path-9" sketch:type="MSShapeGroup"></path>
        </g>
    </g>
</svg>